<?xml version="1.0" standalone="no"?>
<!DOCTYPE svg PUBLIC "-//W3C//DTD SVG 20010904//EN"
 "http://www.w3.org/TR/2001/REC-SVG-20010904/DTD/svg10.dtd">
<svg version="1.0" xmlns="http://www.w3.org/2000/svg"
 width="446.000000pt" height="446.000000pt" viewBox="0 0 446.000000 446.000000"
 preserveAspectRatio="xMidYMid meet">
<metadata>
Created by potrace 1.11, written by Peter Selinger 2001-2013
</metadata>
<g transform="translate(0.000000,446.000000) scale(0.100000,-0.100000)"
fill="#000000" stroke="none">
<path d="M640 2854 c-272 -261 -528 -507 -568 -547 l-73 -73 572 -548 572
-548 159 159 158 158 112 -110 c62 -61 137 -133 166 -160 l52 -50 200 200
c110 110 199 205 198 210 -2 6 -162 163 -356 349 -194 186 -352 342 -350 346
2 4 162 159 355 345 194 185 353 340 353 344 0 9 -394 401 -403 401 -5 0 -78
-67 -163 -150 -86 -82 -159 -150 -162 -150 -4 0 -75 68 -157 150 -82 83 -154
150 -160 149 -5 0 -233 -214 -505 -475z m718 74 c-2 -4 -133 -131 -293 -283
-159 -152 -320 -307 -358 -344 l-67 -67 360 -343 c198 -189 360 -346 360 -350
0 -13 -208 -213 -219 -210 -6 2 -222 206 -481 454 l-470 450 72 71 c40 40 255
246 477 459 l405 386 108 -108 c59 -59 107 -111 106 -115z m642 1 c0 -3 -162
-160 -360 -349 l-361 -344 23 -21 c182 -171 698 -669 698 -674 0 -13 -208
-213 -218 -210 -10 4 -941 894 -945 904 -1 3 212 210 473 460 l475 455 108
-107 c59 -59 107 -110 107 -114z"/>
<path d="M2472 3127 l-202 -202 207 -200 c115 -109 277 -265 361 -346 l152
-147 -360 -343 c-198 -188 -360 -345 -360 -348 0 -11 395 -401 405 -401 6 0
46 36 90 81 44 44 115 112 158 151 l78 71 154 -153 c84 -84 157 -151 163 -149
15 6 1142 1083 1139 1090 -2 5 -1078 1041 -1115 1073 l-22 19 -160 -153 -161
-153 -122 119 c-67 66 -140 136 -162 157 l-41 37 -202 -203z m645 -398 c235
-226 448 -431 472 -455 l45 -43 -130 -124 c-71 -68 -286 -273 -478 -456 l-350
-332 -108 108 c-59 59 -108 110 -108 113 0 4 162 160 359 348 l359 342 -132
128 c-72 71 -233 227 -358 347 -126 120 -228 221 -228 224 0 12 205 211 217
211 7 0 205 -185 440 -411z m683 -41 c259 -249 470 -456 470 -459 0 -7 -937
-902 -949 -907 -3 -1 -56 47 -116 108 l-109 110 88 82 c307 290 634 604 633
608 -1 3 -163 161 -360 350 l-358 344 108 108 c59 59 111 108 116 108 4 0 219
-204 477 -452z"/>
</g>
</svg>
